<svg width="32" height="32" viewBox="0 0 32 32" fill="none" xmlns="http://www.w3.org/2000/svg">
<rect width="32" height="32" rx="16" fill="#F45B69"/>
<path d="M16.0002 9.2998C12.3202 9.2998 9.3335 12.2865 9.3335 15.9665C9.3335 19.6465 12.3202 22.6331 16.0002 22.6331H19.3335V21.2998H16.0002C13.1068 21.2998 10.6668 18.8598 10.6668 15.9665C10.6668 13.0731 13.1068 10.6331 16.0002 10.6331C18.8935 10.6331 21.3335 13.0731 21.3335 15.9665V16.9198C21.3335 17.4465 20.8602 17.9665 20.3335 17.9665C19.8068 17.9665 19.3335 17.4465 19.3335 16.9198V15.9665C19.3335 14.1265 17.8402 12.6331 16.0002 12.6331C14.1602 12.6331 12.6668 14.1265 12.6668 15.9665C12.6668 17.8065 14.1602 19.2998 16.0002 19.2998C16.9202 19.2998 17.7602 18.9265 18.3602 18.3198C18.7935 18.9131 19.5402 19.2998 20.3335 19.2998C21.6468 19.2998 22.6668 18.2331 22.6668 16.9198V15.9665C22.6668 12.2865 19.6802 9.2998 16.0002 9.2998ZM16.0002 17.9665C14.8935 17.9665 14.0002 17.0731 14.0002 15.9665C14.0002 14.8598 14.8935 13.9665 16.0002 13.9665C17.1068 13.9665 18.0002 14.8598 18.0002 15.9665C18.0002 17.0731 17.1068 17.9665 16.0002 17.9665Z" fill="white"/>
</svg>
