<svg width="32" height="32" viewBox="0 0 32 32" fill="none" xmlns="http://www.w3.org/2000/svg">
<rect width="32" height="32" rx="16" fill="#F45B69"/>
<path d="M21.6582 19.4272L18.9482 16.9632C18.8201 16.8467 18.6518 16.7846 18.4787 16.79C18.3057 16.7953 18.1415 16.8677 18.0209 16.9918L16.4255 18.6325C16.0415 18.5592 15.2695 18.3185 14.4749 17.5258C13.6802 16.7305 13.4395 15.9565 13.3682 15.5752L15.0075 13.9792C15.1318 13.8586 15.2043 13.6944 15.2096 13.5213C15.215 13.3482 15.1528 13.1798 15.0362 13.0518L12.5729 10.3425C12.4562 10.2141 12.2941 10.1362 12.121 10.1253C11.9478 10.1145 11.7773 10.1716 11.6455 10.2845L10.1989 11.5252C10.0836 11.6408 10.0148 11.7948 10.0055 11.9578C9.99552 12.1245 9.80485 16.0725 12.8662 19.1352C15.5369 21.8052 18.8822 22.0005 19.8035 22.0005C19.9382 22.0005 20.0209 21.9965 20.0429 21.9952C20.2059 21.986 20.3597 21.9169 20.4749 21.8012L21.7149 20.3538C21.8282 20.2225 21.8857 20.0521 21.8751 19.879C21.8645 19.7058 21.7867 19.5437 21.6582 19.4272Z" fill="white"/>
</svg>
