<svg width="28" height="21" viewBox="0 0 28 21" fill="none" xmlns="http://www.w3.org/2000/svg">
<path d="M6.66686 8.33353C6.36953 8.33353 6.08419 8.37887 5.80019 8.4202C5.89219 8.11087 5.98686 7.7962 6.13886 7.51353C6.29086 7.10287 6.52819 6.74687 6.76419 6.3882C6.96153 6.0002 7.30953 5.73753 7.56553 5.40553C7.83353 5.08287 8.19886 4.8682 8.48819 4.6002C8.77219 4.3202 9.14419 4.1802 9.44019 3.98287C9.74953 3.80553 10.0189 3.60953 10.3069 3.5162L11.0255 3.2202L11.6575 2.95753L11.0109 0.373535L10.2149 0.565535C9.96019 0.629535 9.64953 0.704201 9.29619 0.793535C8.93486 0.860201 8.54953 1.04287 8.12019 1.20953C7.69619 1.39887 7.20553 1.52687 6.74953 1.83087C6.29086 2.12153 5.76153 2.3642 5.29486 2.75353C4.84286 3.15487 4.29753 3.50287 3.89486 4.01354C3.45486 4.49087 3.02019 4.9922 2.68286 5.56287C2.29219 6.10687 2.02686 6.7042 1.74686 7.29487C1.49353 7.88553 1.28953 8.48953 1.12286 9.0762C0.80686 10.2522 0.665527 11.3695 0.61086 12.3255C0.565527 13.2829 0.592194 14.0789 0.648194 14.6549C0.668194 14.9269 0.705527 15.1909 0.732194 15.3735L0.765527 15.5975L0.800194 15.5895C1.03734 16.6973 1.58327 17.7153 2.37481 18.5258C3.16636 19.3362 4.17118 19.9061 5.27305 20.1693C6.37491 20.4325 7.52879 20.3785 8.6012 20.0133C9.67361 19.6482 10.6207 18.9869 11.333 18.1059C12.0453 17.225 12.4936 16.1604 12.6261 15.0353C12.7586 13.9102 12.5698 12.7705 12.0817 11.7482C11.5936 10.7259 10.826 9.86269 9.86773 9.2584C8.90948 8.65411 7.79973 8.33346 6.66686 8.33353ZM21.3335 8.33353C21.0362 8.33353 20.7509 8.37887 20.4669 8.4202C20.5589 8.11087 20.6535 7.7962 20.8055 7.51353C20.9575 7.10287 21.1949 6.74687 21.4309 6.3882C21.6282 6.0002 21.9762 5.73753 22.2322 5.40553C22.5002 5.08287 22.8655 4.8682 23.1549 4.6002C23.4389 4.3202 23.8109 4.1802 24.1069 3.98287C24.4162 3.80553 24.6855 3.60953 24.9735 3.5162L25.6922 3.2202L26.3242 2.95753L25.6775 0.373535L24.8815 0.565535C24.6269 0.629535 24.3162 0.704201 23.9629 0.793535C23.6015 0.860201 23.2162 1.04287 22.7869 1.20953C22.3642 1.4002 21.8722 1.52687 21.4162 1.8322C20.9575 2.12287 20.4282 2.36553 19.9615 2.75487C19.5095 3.1562 18.9642 3.5042 18.5615 4.01354C18.1215 4.49087 17.6869 4.9922 17.3495 5.56287C16.9589 6.10687 16.6935 6.7042 16.4135 7.29487C16.1602 7.88553 15.9562 8.48953 15.7895 9.0762C15.4735 10.2522 15.3322 11.3695 15.2775 12.3255C15.2322 13.2829 15.2589 14.0789 15.3149 14.6549C15.3349 14.9269 15.3722 15.1909 15.3989 15.3735L15.4322 15.5975L15.4669 15.5895C15.704 16.6973 16.2499 17.7153 17.0415 18.5258C17.833 19.3362 18.8378 19.9061 19.9397 20.1693C21.0416 20.4325 22.1955 20.3785 23.2679 20.0133C24.3403 19.6482 25.2874 18.9869 25.9997 18.1059C26.7119 17.225 27.1603 16.1604 27.2928 15.0353C27.4252 13.9102 27.2365 12.7705 26.7484 11.7482C26.2602 10.7259 25.4926 9.86269 24.5344 9.2584C23.5761 8.65411 22.4664 8.33346 21.3335 8.33353Z" fill="#114B5F"/>
</svg>
