<svg width="30" height="30" viewBox="0 0 30 30" fill="none" xmlns="http://www.w3.org/2000/svg">
<path fill-rule="evenodd" clip-rule="evenodd" d="M14.9997 0.333496C6.89967 0.333496 0.333008 6.90016 0.333008 15.0002C0.333008 23.1002 6.89967 29.6668 14.9997 29.6668C23.0997 29.6668 29.6663 23.1002 29.6663 15.0002C29.6663 6.90016 23.0997 0.333496 14.9997 0.333496ZM17.9423 10.6095C18.1852 10.358 18.3196 10.0212 18.3166 9.67163C18.3135 9.32203 18.1733 8.98762 17.9261 8.74041C17.6789 8.49319 17.3445 8.35297 16.9949 8.34993C16.6453 8.34689 16.3085 8.48129 16.057 8.72416L10.7237 14.0575C10.4737 14.3075 10.3333 14.6466 10.3333 15.0002C10.3333 15.3537 10.4737 15.6928 10.7237 15.9428L16.057 21.2762C16.3085 21.519 16.6453 21.6534 16.9949 21.6504C17.3445 21.6474 17.6789 21.5071 17.9261 21.2599C18.1733 21.0127 18.3135 20.6783 18.3166 20.3287C18.3196 19.9791 18.1852 19.6423 17.9423 19.3908L13.5517 15.0002L17.9423 10.6095Z" fill="#F45B69"/>
</svg>
