<svg width="30" height="30" viewBox="0 0 30 30" fill="none" xmlns="http://www.w3.org/2000/svg">
<path fill-rule="evenodd" clip-rule="evenodd" d="M15.0003 29.6665C23.1003 29.6665 29.667 23.0998 29.667 14.9998C29.667 6.89984 23.1003 0.333171 15.0003 0.333171C6.90032 0.333172 0.333656 6.89984 0.333657 14.9998C0.333658 23.0998 6.90033 29.6665 15.0003 29.6665ZM12.0577 19.3905C11.8148 19.642 11.6804 19.9788 11.6834 20.3284C11.6865 20.678 11.8267 21.0124 12.0739 21.2596C12.3211 21.5068 12.6555 21.647 13.0051 21.6501C13.3547 21.6531 13.6915 21.5187 13.943 21.2758L19.2763 15.9425C19.5263 15.6925 19.6667 15.3534 19.6667 14.9998C19.6667 14.6463 19.5263 14.3072 19.2763 14.0572L13.943 8.72384C13.6915 8.48096 13.3547 8.34657 13.0051 8.34961C12.6555 8.35264 12.3211 8.49287 12.0739 8.74008C11.8267 8.98729 11.6865 9.32171 11.6834 9.6713C11.6804 10.0209 11.8148 10.3577 12.0577 10.6092L16.4483 14.9998L12.0577 19.3905Z" fill="#F45B69"/>
</svg>
