<svg width="65" height="64" viewBox="0 0 65 64" fill="none" xmlns="http://www.w3.org/2000/svg">
<rect x="0.5" width="64" height="64" rx="32" fill="white"/>
<path fill-rule="evenodd" clip-rule="evenodd" d="M25.7632 41.0522C29.4838 41.0522 32.5 38.0361 32.5 34.3154C32.5 30.5947 29.4838 27.5786 25.7632 27.5786C22.0425 27.5786 19.0263 30.5947 19.0263 34.3154C19.0263 38.0361 22.0425 41.0522 25.7632 41.0522ZM25.7632 43.5786C30.8791 43.5786 35.0263 39.4313 35.0263 34.3154C35.0263 29.1995 30.8791 25.0522 25.7632 25.0522C20.6473 25.0522 16.5 29.1995 16.5 34.3154C16.5 39.4313 20.6473 43.5786 25.7632 43.5786Z" fill="#F45B69"/>
<path fill-rule="evenodd" clip-rule="evenodd" d="M41.7632 31.6364C44.4691 31.6364 46.6627 29.4428 46.6627 26.7368C46.6627 24.0309 44.4691 21.8373 41.7632 21.8373C39.0573 21.8373 36.8637 24.0309 36.8637 26.7368C36.8637 29.4428 39.0573 31.6364 41.7632 31.6364ZM41.7632 33.4737C45.4839 33.4737 48.5001 30.4575 48.5001 26.7368C48.5001 23.0162 45.4839 20 41.7632 20C38.0426 20 35.0264 23.0162 35.0264 26.7368C35.0264 30.4575 38.0426 33.4737 41.7632 33.4737Z" fill="#F45B69"/>
<path d="M38.97 31.4893C39.4504 31.5482 39.8695 31.6616 40.1895 31.7896C39.7789 31.7896 39.3683 31.6895 38.97 31.4893C37.3429 31.2899 35.013 31.7154 33.4527 34.3159C33.4527 30.1054 32.6105 29.2631 31.7684 28.421C30.9263 27.5789 35.1369 29.2631 35.979 26.7368C36.6158 29.2841 37.7342 30.8683 38.97 31.4893Z" fill="#F45B69"/>
</svg>
