<svg width="233" height="20" viewBox="0 0 233 20" fill="none" xmlns="http://www.w3.org/2000/svg">
<path d="M6.5 10L6.12861 10.9285L6.14334 10.9344L6.15826 10.9398L6.5 10ZM226.5 10L226.871 9.07152L226.857 9.06563L226.842 9.06021L226.5 10ZM116.5 10L116.158 10.9398L116.5 10ZM171.5 10L171.842 10.9398L171.5 10ZM1.87139 7.07152C1.35861 6.86641 0.776637 7.11583 0.571523 7.62861C0.36641 8.14139 0.615826 8.72336 1.12861 8.92848L1.87139 7.07152ZM231.129 12.9285C231.641 13.1336 232.223 12.8842 232.428 12.3714C232.634 11.8586 232.384 11.2766 231.871 11.0715L231.129 12.9285ZM20.3303 15.0292L19.9885 15.969L20.3303 15.0292ZM102.67 4.97081L103.011 4.03101L102.67 4.97081ZM157.67 15.0292L157.328 14.0894L157.67 15.0292ZM212.67 4.97081L212.328 5.9106L212.67 4.97081ZM171.842 10.9398L185.672 5.9106L184.989 4.03101L171.158 9.06021L171.842 10.9398ZM212.328 5.9106L226.158 10.9398L226.842 9.06021L213.011 4.03101L212.328 5.9106ZM116.158 10.9398L129.989 15.969L130.672 14.0894L116.842 9.06021L116.158 10.9398ZM158.011 15.969L171.842 10.9398L171.158 9.06021L157.328 14.0894L158.011 15.969ZM61.8417 10.9398L75.672 5.9106L74.9886 4.03101L61.1583 9.06021L61.8417 10.9398ZM102.328 5.9106L116.158 10.9398L116.842 9.06021L103.011 4.03101L102.328 5.9106ZM6.15826 10.9398L19.9885 15.969L20.672 14.0894L6.84174 9.06021L6.15826 10.9398ZM48.0115 15.969L61.8417 10.9398L61.1583 9.06021L47.328 14.0894L48.0115 15.969ZM6.87139 9.07152L1.87139 7.07152L1.12861 8.92848L6.12861 10.9285L6.87139 9.07152ZM226.129 10.9285L231.129 12.9285L231.871 11.0715L226.871 9.07152L226.129 10.9285ZM19.9885 15.969C29.0396 19.2603 38.9604 19.2603 48.0115 15.969L47.328 14.0894C38.7184 17.2201 29.2816 17.2201 20.672 14.0894L19.9885 15.969ZM75.672 5.9106C84.2816 2.77986 93.7184 2.77986 102.328 5.9106L103.011 4.03101C93.9604 0.739723 84.0396 0.739718 74.9886 4.03101L75.672 5.9106ZM129.989 15.969C139.04 19.2603 148.96 19.2603 158.011 15.969L157.328 14.0894C148.718 17.2201 139.282 17.2201 130.672 14.0894L129.989 15.969ZM185.672 5.9106C194.282 2.77986 203.718 2.77986 212.328 5.9106L213.011 4.03101C203.96 0.739722 194.04 0.739717 184.989 4.03101L185.672 5.9106Z" fill="#58ABB8"/>
<path d="M6.5 10L6.12861 9.07152L6.14334 9.06563L6.15826 9.06021L6.5 10ZM226.5 10L226.871 10.9285L226.857 10.9344L226.842 10.9398L226.5 10ZM116.5 10L116.158 9.06021L116.5 10ZM171.5 10L171.842 9.06021L171.5 10ZM1.87139 12.9285C1.35861 13.1336 0.776637 12.8842 0.571523 12.3714C0.36641 11.8586 0.615826 11.2766 1.12861 11.0715L1.87139 12.9285ZM231.129 7.07152C231.641 6.86641 232.223 7.11582 232.428 7.62861C232.634 8.14139 232.384 8.72336 231.871 8.92848L231.129 7.07152ZM20.3303 4.9708L19.9885 4.03101L20.3303 4.9708ZM102.67 15.0292L103.011 15.969L102.67 15.0292ZM157.67 4.97081L157.328 5.9106L157.67 4.97081ZM212.67 15.0292L212.328 14.0894L212.67 15.0292ZM171.842 9.06021L185.672 14.0894L184.989 15.969L171.158 10.9398L171.842 9.06021ZM212.328 14.0894L226.158 9.06021L226.842 10.9398L213.011 15.969L212.328 14.0894ZM116.158 9.06021L129.989 4.03101L130.672 5.9106L116.842 10.9398L116.158 9.06021ZM158.011 4.03101L171.842 9.06021L171.158 10.9398L157.328 5.9106L158.011 4.03101ZM61.8417 9.06021L75.672 14.0894L74.9886 15.969L61.1583 10.9398L61.8417 9.06021ZM102.328 14.0894L116.158 9.06021L116.842 10.9398L103.011 15.969L102.328 14.0894ZM6.15826 9.06021L19.9885 4.03101L20.672 5.9106L6.84174 10.9398L6.15826 9.06021ZM48.0115 4.03101L61.8417 9.06021L61.1583 10.9398L47.328 5.9106L48.0115 4.03101ZM6.87139 10.9285L1.87139 12.9285L1.12861 11.0715L6.12861 9.07152L6.87139 10.9285ZM226.129 9.07152L231.129 7.07152L231.871 8.92848L226.871 10.9285L226.129 9.07152ZM19.9885 4.03101C29.0396 0.739717 38.9604 0.739723 48.0115 4.03101L47.328 5.9106C38.7184 2.77986 29.2816 2.77986 20.672 5.9106L19.9885 4.03101ZM75.672 14.0894C84.2816 17.2201 93.7184 17.2201 102.328 14.0894L103.011 15.969C93.9604 19.2603 84.0396 19.2603 74.9886 15.969L75.672 14.0894ZM129.989 4.03101C139.04 0.739717 148.96 0.739721 158.011 4.03101L157.328 5.9106C148.718 2.77986 139.282 2.77986 130.672 5.9106L129.989 4.03101ZM185.672 14.0894C194.282 17.2201 203.718 17.2201 212.328 14.0894L213.011 15.969C203.96 19.2603 194.04 19.2603 184.989 15.969L185.672 14.0894Z" fill="#58ABB8"/>
<path d="M33.5 3L33.5 8.17391L33.5 17" stroke="#58ABB8" stroke-width="2"/>
<path d="M39.5 3L39.5 8.17391L39.5 17" stroke="#58ABB8" stroke-width="2"/>
<path d="M45.5 4L45.5 8.43478L45.5 16" stroke="#58ABB8" stroke-width="2"/>
<path d="M51.5 6L51.5 8.95652L51.5 14" stroke="#58ABB8" stroke-width="2"/>
<path d="M27.5 3L27.5 8.17391L27.5 17" stroke="#58ABB8" stroke-width="2"/>
<path d="M21.5 5L21.5 8.69565L21.5 15" stroke="#58ABB8" stroke-width="2"/>
<path d="M15.5 6L15.5 8.95652L15.5 14" stroke="#58ABB8" stroke-width="2"/>
<path d="M88.5 3L88.5 8.17391L88.5 17" stroke="#58ABB8" stroke-width="2"/>
<path d="M94.5 3L94.5 8.17391L94.5 17" stroke="#58ABB8" stroke-width="2"/>
<path d="M100.5 4L100.5 8.43478L100.5 16" stroke="#58ABB8" stroke-width="2"/>
<path d="M106.5 6L106.5 8.95652L106.5 14" stroke="#58ABB8" stroke-width="2"/>
<path d="M82.5 3L82.5 8.17391L82.5 17" stroke="#58ABB8" stroke-width="2"/>
<path d="M76.5 5L76.5 8.69565L76.5 15" stroke="#58ABB8" stroke-width="2"/>
<path d="M70.5 6L70.5 8.95652L70.5 14" stroke="#58ABB8" stroke-width="2"/>
<path d="M143.5 3L143.5 8.17391L143.5 17" stroke="#58ABB8" stroke-width="2"/>
<path d="M149.5 3L149.5 8.17391L149.5 17" stroke="#58ABB8" stroke-width="2"/>
<path d="M155.5 4L155.5 8.43478L155.5 16" stroke="#58ABB8" stroke-width="2"/>
<path d="M161.5 6L161.5 8.95652L161.5 14" stroke="#58ABB8" stroke-width="2"/>
<path d="M137.5 3L137.5 8.17391L137.5 17" stroke="#58ABB8" stroke-width="2"/>
<path d="M131.5 5L131.5 8.69565L131.5 15" stroke="#58ABB8" stroke-width="2"/>
<path d="M125.5 6L125.5 8.95652L125.5 14" stroke="#58ABB8" stroke-width="2"/>
<path d="M198.5 3L198.5 8.17391L198.5 17" stroke="#58ABB8" stroke-width="2"/>
<path d="M204.5 3L204.5 8.17391L204.5 17" stroke="#58ABB8" stroke-width="2"/>
<path d="M210.5 4L210.5 8.43478L210.5 16" stroke="#58ABB8" stroke-width="2"/>
<path d="M216.5 6L216.5 8.95652L216.5 14" stroke="#58ABB8" stroke-width="2"/>
<path d="M192.5 3L192.5 8.17391L192.5 17" stroke="#58ABB8" stroke-width="2"/>
<path d="M186.5 5L186.5 8.69565L186.5 15" stroke="#58ABB8" stroke-width="2"/>
<path d="M180.5 6L180.5 8.95652L180.5 14" stroke="#58ABB8" stroke-width="2"/>
</svg>
