<svg width="65" height="64" viewBox="0 0 65 64" fill="none" xmlns="http://www.w3.org/2000/svg">
<rect x="0.5" width="64" height="64" rx="32" fill="white"/>
<path fill-rule="evenodd" clip-rule="evenodd" d="M43.609 15.8692C39.5886 14.206 34.5765 14.2688 30.7996 16.0295C28.2943 17.1979 25.0575 19.7117 23.7011 21.5434C20.7234 25.5645 21.1439 31.52 24.6537 35.0443C26.0569 36.4535 25.6532 37.401 23.559 37.6119C21.2615 37.8429 19.6765 41.2332 21.3067 42.4298C22.205 43.0891 23.0543 42.4079 22.9068 41.1455C22.7341 39.6678 23.9391 39.2225 25.1001 40.3352C26.9478 42.1054 27.1483 42.185 27.7378 41.382C28.1511 40.8189 28.1225 40.4042 27.6311 39.8375C27.1706 39.3055 27.1099 38.8002 27.4383 38.2263C27.8368 37.5307 28.3911 37.4353 30.7455 37.6566C32.7251 37.8426 33.6618 37.735 33.866 37.2987C34.3323 36.3025 33.3479 35.6557 31.3799 35.6655C29.896 35.6729 29.143 35.403 27.3444 34.2189C25.3598 32.9123 25.0507 32.5566 24.3291 30.7454C23.1224 27.7185 23.6387 25.426 26.2404 22.2565C31.8716 15.3969 41.5028 14.9061 47.5058 21.1726C49.6083 23.3677 50.5435 25.1894 50.9154 27.8144C51.8478 34.4 47.8694 40.6234 40.2076 44.564C36.1359 46.6579 29.0038 47.7517 24.9223 46.9078C16.3339 45.1322 11.6846 39.4264 12.8938 32.1455C13.2329 30.1031 13.7422 28.7482 14.8121 27.0405C16.359 24.5713 16.4302 23.9119 15.1432 23.9708C13.8354 24.0309 11.4704 28.0168 10.8346 31.2319C10.2211 34.335 10.9369 38.7261 12.487 41.3629C17.2533 49.4724 30.76 51.788 41.4368 46.3265C45.4907 44.2528 48.0188 42.0083 50.4305 38.3414C52.1758 35.6877 52.4797 34.9357 52.9402 32.1337C53.5663 28.3282 52.9496 25.1268 51.036 22.2445C49.5318 19.9786 45.8008 16.7759 43.609 15.8692Z" fill="#F45B69"/>
</svg>
