<svg width="65" height="64" viewBox="0 0 65 64" fill="none" xmlns="http://www.w3.org/2000/svg">
<rect x="0.5" width="64" height="64" rx="32" fill="white"/>
<path fill-rule="evenodd" clip-rule="evenodd" d="M32.4316 10.2912C27.93 11.4239 23.6649 14.7151 21.5308 18.7024C20.1156 21.3477 18.9203 25.6485 18.9101 28.1355C18.8875 33.595 23.0031 38.5622 28.2394 39.3961C30.333 39.7297 30.5835 40.8238 28.9178 42.3614C27.0901 44.048 27.8661 48.0535 30.0206 48.0535C31.2078 48.0535 31.5078 46.9059 30.5852 45.8907C29.5054 44.7024 30.2597 43.5328 31.9582 43.762C34.6612 44.1261 34.8836 44.0667 34.8836 42.9798C34.8836 42.2176 34.5977 41.8713 33.8183 41.69C33.0875 41.5194 32.7167 41.1141 32.637 40.3973C32.5407 39.5281 32.9566 39.0863 35.1184 37.7609C36.9359 36.6465 37.6726 35.947 37.5729 35.4314C37.3454 34.2541 36.0921 34.3207 34.408 35.5999C33.1382 36.5645 32.3213 36.8132 30.03 36.9329C27.5017 37.0649 27.0121 36.9516 25.2505 35.8244C22.3059 33.9409 21.3041 31.591 21.5406 27.1233C22.0528 17.4538 30.0155 10.8039 39.1219 12.4404C42.3115 13.0137 44.2632 14.0123 46.2374 16.0813C51.1899 21.2721 51.6962 29.3149 47.5998 37.7278C45.4227 42.1985 39.9865 47.7653 35.9489 49.6581C27.4532 53.6411 19.8629 51.624 16.3115 44.4389C15.3152 42.4234 14.8985 40.9028 14.7408 38.7099C14.5128 35.5392 14.1583 34.9132 13.09 35.796C12.0046 36.6931 12.4862 41.7261 13.967 44.9647C15.3962 48.0904 18.7793 51.4907 21.7728 52.8093C30.979 56.8653 44.0395 50.1819 49.7667 38.4845C51.9412 34.0432 52.6976 30.4366 52.4572 25.6541C52.2834 22.1931 52.0703 21.3354 50.6995 18.5734C48.8381 14.8217 46.2903 12.4039 42.8297 11.1039C40.1093 10.082 34.8857 9.67369 32.4316 10.2912Z" fill="#F45B69"/>
</svg>
